<svg width="52" height="52" viewBox="0 0 52 52" fill="none" xmlns="http://www.w3.org/2000/svg">
<g clip-path="url(#clip0_39_1409)">
<path d="M51.7143 26.0078C51.7143 11.8347 40.1653 0.285706 25.9922 0.285706C11.8191 0.285706 0.285767 11.8347 0.285767 26.0078C0.285767 33.8172 3.82119 40.8252 9.33644 45.5548C9.39929 45.6176 9.47786 45.6962 9.60356 45.7433C14.066 49.483 19.7699 51.7143 26.0708 51.7143C32.3717 51.7143 37.9498 49.483 42.3965 45.8848C42.6637 45.8219 42.8522 45.6176 42.9779 45.4291C48.3046 40.6366 51.6986 33.7543 51.6986 26.0236L51.7143 26.0078ZM2.65843 26.0078C2.64271 13.1389 13.139 2.64265 26.0079 2.64265C38.8768 2.64265 49.3574 13.1389 49.3574 25.9921C49.3574 32.293 46.8747 37.9968 42.8051 42.1922C42.1451 39.1125 40.181 33.8643 34.1472 30.4546C35.53 28.7419 36.3156 26.5264 36.3156 24.1537C36.3156 18.5128 31.7274 13.9246 26.0865 13.9246C20.4455 13.9246 15.8573 18.5128 15.8573 24.1537C15.8573 26.5107 16.7058 28.6791 18.0257 30.4546C11.9291 33.8643 9.96496 39.1125 9.38358 42.1922C5.25107 38.0597 2.68985 32.293 2.68985 25.9921L2.65843 26.0078ZM18.1357 24.2323C18.1357 19.8955 21.6711 16.3601 26.0079 16.3601C30.3447 16.3601 33.8801 19.8955 33.8801 24.2323C33.8801 28.5691 30.3447 32.1045 26.0079 32.1045C21.6711 32.1045 18.1357 28.5691 18.1357 24.2323ZM11.442 44.2349C11.5834 42.3336 12.6205 35.907 19.707 32.293C21.4826 33.6758 23.6353 34.4614 26.0079 34.4614C28.3806 34.4614 30.5961 33.6129 32.3717 32.2302C39.3954 35.8442 40.511 42.1294 40.6995 44.1721C36.6927 47.3775 31.586 49.3573 26.0708 49.3573C20.4927 49.3573 15.4331 47.4561 11.4263 44.2506L11.442 44.2349Z" fill="black"/>
</g>
<defs>
<clipPath id="clip0_39_1409">
<rect width="51.4286" height="51.4286" fill="white" transform="translate(0.285767 0.285706)"/>
</clipPath>
</defs>
</svg>
