<svg width="52" height="52" viewBox="0 0 52 52" fill="inherit" xmlns="http://www.w3.org/2000/svg">
<g clip-path="url(#clip0_39_1567)">
<path d="M26.6188 0.285706C27.518 0.517886 28.3568 0.853406 29.0332 1.52982C31.2879 3.78317 30.4007 7.62287 27.3717 8.62003C26.9851 8.74753 26.859 8.9059 26.8657 9.30986C26.8912 10.8465 26.8764 12.3832 26.8764 13.9749C27.1287 13.9857 27.3381 14.0045 27.5475 14.0045C32.1334 14.0058 36.7179 13.9991 41.3038 14.0085C44.4215 14.0152 46.8869 16.0283 47.3553 19.0695C47.5338 20.2317 47.4251 21.4396 47.4452 22.626C47.4492 22.8729 47.4452 23.1199 47.4452 23.399C47.8653 23.4178 48.2303 23.4178 48.5913 23.4541C50.1361 23.6111 51.25 24.5747 51.6459 26.0805C51.666 26.1584 51.7076 26.2308 51.7398 26.306V32.5346C51.6486 32.8017 51.5761 33.0795 51.4607 33.3358C50.8688 34.6497 49.8341 35.3342 48.4075 35.4321C48.1095 35.4523 47.8102 35.4348 47.4452 35.4348C47.4452 36.377 47.4854 37.2788 47.4331 38.174C47.3834 39.0356 47.3673 39.9308 47.1137 40.7428C46.3205 43.2887 44.0269 44.867 41.2676 44.8697C35.0886 44.8764 28.9083 44.8764 22.7294 44.8643C22.2221 44.8643 21.8007 44.9784 21.3752 45.2656C18.3489 47.3029 15.3077 49.3173 12.2719 51.3398C12.1887 51.3949 12.1068 51.4539 12.0209 51.5063C11.2721 51.9746 10.5889 51.6163 10.5809 50.7238C10.5661 48.9992 10.5755 47.2747 10.5755 45.5501C10.5755 45.3515 10.5755 45.1515 10.5755 44.922C10.1112 44.8455 9.66558 44.7999 9.23478 44.6952C6.44996 44.0174 4.61936 41.7064 4.58983 38.8397C4.58044 37.8855 4.58983 36.9312 4.58715 35.977C4.58715 35.8133 4.57373 35.6509 4.56567 35.4818C4.05031 35.4415 3.56314 35.4402 3.09207 35.3583C1.49633 35.0805 0.32201 33.7076 0.300537 32.0823C0.279064 30.3752 0.288458 28.6667 0.295169 26.9596C0.304563 24.9585 1.7057 23.5158 3.71345 23.4312C3.97918 23.4205 4.24492 23.4299 4.58983 23.4299C4.58983 23.191 4.58715 22.9991 4.58983 22.8058C4.6113 21.551 4.49454 20.2747 4.68512 19.0467C5.15619 16.0216 7.61622 14.0192 10.7097 14.0098C14.6112 13.9978 18.5139 14.0071 22.4154 14.0071C23.3011 14.0071 24.1856 14.0071 25.1129 14.0071C25.1304 13.8233 25.1545 13.681 25.1545 13.5388C25.1572 12.0987 25.1545 10.6587 25.1586 9.2186C25.1586 8.95153 25.1384 8.7784 24.8096 8.67237C22.873 8.04831 21.6383 6.33313 21.7282 4.45421C21.8262 2.39009 23.1548 0.839985 25.2324 0.364888C25.2955 0.350125 25.3532 0.312547 25.4136 0.285706C25.8149 0.285706 26.2175 0.285706 26.6188 0.285706ZM12.2934 49.2542C12.543 49.0959 12.6987 49.0006 12.8503 48.8986C15.3829 47.2089 17.9221 45.5286 20.4425 43.8202C21.1216 43.3598 21.8275 43.1491 22.6502 43.1505C28.8278 43.1666 35.0068 43.1639 41.1844 43.1572C43.9142 43.1545 45.7233 41.3467 45.726 38.6276C45.7313 32.501 45.7313 26.3744 45.726 20.2465C45.7233 17.514 43.9316 15.7264 41.1924 15.725C31.0798 15.721 20.9673 15.7223 10.8547 15.7264C10.4883 15.7264 10.1125 15.7317 9.7555 15.8029C7.75043 16.2068 6.32112 17.8804 6.3144 19.9284C6.29427 26.2724 6.30635 32.6165 6.31038 38.9618C6.31038 39.194 6.33051 39.4315 6.37614 39.6597C6.77877 41.6554 8.31008 42.9559 10.4265 43.1585C10.8278 43.1974 11.2573 43.3088 11.5982 43.5128C12.1431 43.8403 12.3001 44.412 12.2974 45.0347C12.2894 46.4037 12.2947 47.7726 12.2947 49.2542H12.2934ZM4.56836 25.2055C2.81023 24.8874 1.92311 25.8497 1.98888 27.283C2.05732 28.7848 2.00095 30.292 2.00498 31.7964C2.00901 33.2405 3.14709 34.0632 4.56836 33.6378V25.2068V25.2055ZM47.4667 33.7277C47.6707 33.7277 47.8196 33.7277 47.9686 33.7277C49.3684 33.7331 50.026 33.0768 50.0273 31.677C50.0273 30.1215 50.0327 28.5674 50.026 27.0119C50.0193 25.6108 48.8154 24.78 47.4667 25.2431V33.7277ZM26.0027 7.13166C27.4374 7.13703 28.601 5.98016 28.5903 4.55755C28.5809 3.15373 27.4307 2.00491 26.0282 1.9982C24.6056 1.99149 23.434 3.16179 23.4421 4.58171C23.4501 5.98955 24.5909 7.1263 26.0027 7.13166Z" fill="inherit"/>
<path d="M20.0023 26.8468C20.009 29.2196 18.1207 31.1281 15.7532 31.1388C13.3818 31.1495 11.4586 29.2572 11.4451 26.9019C11.4317 24.5089 13.3388 22.5844 15.7237 22.583C18.0911 22.5817 19.9955 24.4794 20.0023 26.8468ZM18.2884 26.8549C18.2857 25.4376 17.157 24.3009 15.7452 24.2942C14.3132 24.2875 13.1523 25.4403 13.155 26.8656C13.1576 28.2909 14.3226 29.437 15.7572 29.425C17.1691 29.4142 18.2911 28.2735 18.2898 26.8535L18.2884 26.8549Z" fill="inherit"/>
<path d="M36.2885 31.1388C33.921 31.1321 32.0273 29.2277 32.03 26.8562C32.0327 24.4646 33.9492 22.5683 36.3489 22.583C38.7029 22.5978 40.5992 24.5237 40.5885 26.8911C40.5777 29.2492 38.6599 31.1442 36.2898 31.1375L36.2885 31.1388ZM36.3099 29.4263C37.7205 29.4236 38.8666 28.2882 38.8773 26.8817C38.8881 25.4537 37.7352 24.2942 36.3046 24.2928C34.8699 24.2928 33.7345 25.443 33.7452 26.8871C33.7546 28.299 34.8954 29.4263 36.3113 29.425L36.3099 29.4263Z" fill="inherit"/>
<path d="M25.9947 36.2481C24.5587 36.2817 23.1978 36.0025 22.0128 35.1463C21.6652 34.8953 21.3484 34.5826 21.0733 34.2524C20.7619 33.878 20.8357 33.3814 21.1807 33.0835C21.5256 32.7869 22.0731 32.7694 22.3483 33.1573C23.5414 34.8443 27.1596 34.9074 28.7205 33.9545C29.0426 33.7572 29.3311 33.4915 29.6022 33.2244C30.0022 32.8312 30.4746 32.7614 30.8517 33.0795C31.2248 33.3948 31.2637 33.9062 30.9081 34.3316C29.8653 35.5784 28.4574 36.0777 26.8966 36.2441C26.5986 36.2763 26.2953 36.2481 25.9947 36.2481Z" fill="inherit"/>
</g>
<defs>
<clipPath id="clip0_39_1567">
<rect width="51.4541" height="51.4286" fill="red" transform="translate(0.285767 0.285706)"/>
</clipPath>
</defs>
</svg>
