<svg width="56" height="40" viewBox="0 0 56 40" fill="none" xmlns="http://www.w3.org/2000/svg">
<g clip-path="url(#clip0_39_1392)">
<path d="M0 32.5373C0.118261 31.8682 0.191814 31.1856 0.361995 30.5298C1.44077 26.3632 3.88243 23.4031 7.77352 21.7427C7.85572 21.7071 7.93649 21.6655 8.08215 21.5958C5.47896 19.8968 4.05117 17.4946 3.91993 14.3593C3.83051 12.2078 4.51124 10.2892 5.83807 8.61252C8.42972 5.33925 13.9822 4.03499 18.1271 7.85727C19.8578 3.28419 23.0523 0.757274 27.8751 0.714244C31.2556 0.683084 35.4337 2.79899 37.1643 7.90772C39.5166 5.8482 42.1818 5.07662 45.1845 5.91645C47.2829 6.50404 48.9126 7.78753 50.0736 9.68679C52.3306 13.3785 51.5648 18.7795 47.2238 21.6492C47.4199 21.7397 47.5713 21.8065 47.7213 21.8777C52.5527 24.1583 55.0593 28.0414 55.267 33.4959C55.3059 34.5316 55.2742 35.5688 55.2727 36.6059C55.2727 37.6624 54.9785 37.971 53.9661 37.971C50.2784 37.971 46.5906 37.971 42.9014 37.971C42.6894 37.971 42.4774 37.971 42.2755 37.971C42.0952 39.0809 41.8602 39.2842 40.8059 39.2842C31.9911 39.2842 23.1749 39.2842 14.3601 39.2842C13.3376 39.2842 13.0607 39.0408 12.8977 37.971H12.3222C8.61577 37.971 4.91073 37.9651 1.20425 37.9784C0.699472 37.9799 0.287 37.8701 0 37.4235C0 35.7943 0 34.1651 0 32.5359L0 32.5373ZM40.3502 37.29C40.2939 35.6593 40.2867 34.0701 40.1742 32.4884C39.8526 27.9405 37.6951 24.5901 33.8227 22.4C31.0695 20.842 28.0597 20.8138 25.0901 21.1625C19.0891 21.8688 14.8389 26.8989 14.7711 33.1249C14.7567 34.5049 14.7682 35.8863 14.7682 37.29H40.3502ZM19.4771 10.8753C19.4771 15.4336 23.1085 19.1579 27.5635 19.1713C32.0257 19.1846 35.6226 15.4781 35.6168 10.8724C35.6111 6.30521 31.9897 2.63874 27.4914 2.64615C23.0941 2.65209 19.4756 6.36753 19.4756 10.8753H19.4771ZM12.8991 36.0376C12.9309 33.8238 12.7866 31.6189 13.3895 29.4733C13.9909 27.3351 14.9644 25.4092 16.4383 23.7221C14.5029 22.8822 12.5689 22.5766 10.57 22.9386C5.52078 23.8541 2.08255 27.8337 1.78113 33.1012C1.72633 34.0701 1.77392 35.045 1.77392 36.0361H12.8991V36.0376ZM38.6152 23.7102C41.7462 27.255 42.463 31.4809 42.1414 36.0272H53.2608C53.6733 31.5076 52.645 27.5814 48.9212 24.8423C45.7556 22.5128 42.3101 22.2234 38.6166 23.7102H38.6152ZM5.69241 14.1575C5.7126 14.4706 5.70971 14.7881 5.75442 15.0982C6.21593 18.3255 8.72393 20.707 11.8954 20.9355C14.8288 21.1477 17.6656 19.0169 18.4935 15.9484C18.5713 15.6576 18.5411 15.2822 18.4315 15.0003C17.9022 13.6456 17.6022 12.2538 17.595 10.7893C17.595 10.537 17.4955 10.2403 17.3455 10.0399C15.6653 7.78753 12.7463 6.90467 10.1387 7.83798C7.46633 8.79355 5.69529 11.3175 5.69385 14.156L5.69241 14.1575ZM42.8308 7.51599C40.8261 7.52193 38.9411 8.43298 37.7614 10.0073C37.5912 10.2343 37.4816 10.5637 37.4686 10.8516C37.3994 12.322 37.1441 13.745 36.6048 15.1145C36.5182 15.3341 36.5009 15.622 36.5557 15.8535C37.2739 18.9012 39.8815 20.9459 42.9577 20.8925C46.5647 20.8301 49.3698 17.864 49.3438 14.1427C49.3164 10.4406 46.4334 7.50561 42.8337 7.51748L42.8308 7.51599ZM38.6657 21.6418C36.9826 20.6076 35.8346 19.2351 35.0962 17.5584C34.2165 18.3017 33.3843 19.0066 32.5348 19.7262C34.1631 20.2619 35.6284 21.0557 36.9624 22.1151C37.0677 22.1982 37.2653 22.2501 37.3821 22.2071C37.7816 22.0632 38.1638 21.8688 38.6671 21.6433L38.6657 21.6418ZM17.8459 22.262C18.5944 21.7709 19.3098 21.2382 20.0799 20.8109C20.8601 20.3776 21.6937 20.0482 22.4653 19.6921C21.6562 19.0036 20.8198 18.2943 19.9631 17.5673C19.2319 19.2469 18.0723 20.6105 16.4585 21.6329C16.9849 21.8733 17.4248 22.0721 17.8445 22.2635L17.8459 22.262Z" fill="black"/>
</g>
<defs>
<clipPath id="clip0_39_1392">
<rect width="55.2857" height="38.5714" fill="white" transform="translate(0 0.714355)"/>
</clipPath>
</defs>
</svg>
